<svg xmlns="http://www.w3.org/2000/svg" xmlns:xlink="http://www.w3.org/1999/xlink" viewBox="0 0 102.4 102.1"><defs><style>.cls-1,.cls-2,.cls-7{opacity:0.25;}.cls-1{fill:url(#Fading_Sky);}.cls-2{fill:url(#Fading_Sky-2);}.cls-3{fill:url(#linear-gradient);}.cls-4{fill:#2b3990;}.cls-5{fill:url(#linear-gradient-2);}.cls-6{fill:url(#linear-gradient-3);}.cls-7{fill:url(#Fading_Sky-3);}</style><linearGradient id="Fading_Sky" x1="-1516.25" y1="24.5" x2="-1409.94" y2="123.76" gradientTransform="translate(1493.37 -42.47)" gradientUnits="userSpaceOnUse"><stop offset="0" stop-color="#2484c6"/><stop offset="1" stop-color="#2484c6" stop-opacity="0"/></linearGradient><linearGradient id="Fading_Sky-2" x1="-1520.1" y1="-1326.33" x2="-1413.79" y2="-1227.07" gradientTransform="translate(1497.22 1308.36)" xlink:href="#Fading_Sky"/><linearGradient id="linear-gradient" x1="37.53" y1="27.46" x2="55.85" y2="27.49" gradientUnits="userSpaceOnUse"><stop offset="0.48" stop-color="#093444"/><stop offset="0.55" stop-color="#093948"/><stop offset="0.63" stop-color="#084753"/><stop offset="0.73" stop-color="#065e65"/><stop offset="0.82" stop-color="#037f7e"/><stop offset="0.92" stop-color="#00a79d"/></linearGradient><linearGradient id="linear-gradient-2" x1="74.86" y1="39.94" x2="74.86" y2="55.85" gradientUnits="userSpaceOnUse"><stop offset="0.3" stop-color="#0f3238"/><stop offset="0.41" stop-color="#0f343d"/><stop offset="0.53" stop-color="#113c4b"/><stop offset="0.67" stop-color="#134862"/><stop offset="0.81" stop-color="#165883"/><stop offset="0.95" stop-color="#1b6dad"/><stop offset="1" stop-color="#1c75bc"/></linearGradient><linearGradient id="linear-gradient-3" x1="-1603.89" y1="-1135.61" x2="-1585.57" y2="-1135.59" gradientTransform="translate(1593.78 1210.69)" gradientUnits="userSpaceOnUse"><stop offset="0.61" stop-color="#093444"/><stop offset="0.69" stop-color="#0b3449"/><stop offset="0.79" stop-color="#113557"/><stop offset="0.89" stop-color="#1c376e"/><stop offset="1" stop-color="#2b398f"/><stop offset="1" stop-color="#2b3990"/></linearGradient><linearGradient id="Fading_Sky-3" x1="-22.58" y1="-17.97" x2="83.74" y2="81.29" gradientTransform="matrix(1, 0, 0, 1, 0, 0)" xlink:href="#Fading_Sky"/></defs><g id="Layer_2" data-name="Layer 2"><g id="Layer_1-2" data-name="Layer 1"><rect class="cls-1" width="102.1" height="102.1" rx="10.64" transform="translate(0 102.1) rotate(-90)"/><rect class="cls-2" width="102.1" height="102.1" rx="10.64" transform="translate(102.1 102.1) rotate(180)"/><path class="cls-3" d="M51,3.69H88A10.64,10.64,0,0,1,98.68,14.33v37a0,0,0,0,1,0,0H51a0,0,0,0,1,0,0V3.69A0,0,0,0,1,51,3.69Z"/><path class="cls-4" d="M51.05,3.69V99H12.81a9.38,9.38,0,0,1-9.39-9.39V13.08a9.39,9.39,0,0,1,9.39-9.39Z"/><path class="cls-5" d="M51,51.32H98.68a0,0,0,0,1,0,0v37A10.64,10.64,0,0,1,88,99H51a0,0,0,0,1,0,0V51.32A0,0,0,0,1,51,51.32Z"/><path class="cls-6" d="M3.42,51.32h37A10.64,10.64,0,0,1,51,62V99a0,0,0,0,1,0,0H3.42a0,0,0,0,1,0,0V51.32A0,0,0,0,1,3.42,51.32Z" transform="translate(54.47 150.27) rotate(180)"/><rect class="cls-7" x="0.3" width="102.1" height="102.1" rx="10.64"/></g></g></svg>