<svg id="Layer_1" data-name="Layer 1" xmlns="http://www.w3.org/2000/svg" xmlns:xlink="http://www.w3.org/1999/xlink" viewBox="0 0 510.99 139.82"><defs><style>.cls-1{fill:#f1f2f2;}.cls-2{fill:#e6e7e8;}.cls-3{fill:url(#linear-gradient);}.cls-4{fill:url(#linear-gradient-2);}.cls-5{fill:url(#linear-gradient-3);}.cls-6{fill:#2b3990;}.cls-7{fill:url(#linear-gradient-4);}.cls-8{fill:url(#linear-gradient-5);}</style><linearGradient id="linear-gradient" x1="107.15" y1="115.23" x2="-31.74" y2="-58.9" gradientTransform="translate(142.22 -0.94) rotate(90)" gradientUnits="userSpaceOnUse"><stop offset="0" stop-color="#f1f2f2"/><stop offset="0.45" stop-color="#97c2df" stop-opacity="0.56"/><stop offset="1" stop-color="#2484c6" stop-opacity="0"/></linearGradient><linearGradient id="linear-gradient-2" x1="-1276.49" y1="-646.4" x2="-1148.21" y2="-526.62" gradientTransform="translate(1258.87 633.74)" gradientUnits="userSpaceOnUse"><stop offset="0" stop-color="#f1f2f2" stop-opacity="0"/><stop offset="0.45" stop-color="#f1f2f2" stop-opacity="0.44"/><stop offset="1" stop-color="#f1f2f2"/></linearGradient><linearGradient id="linear-gradient-3" x1="56.26" y1="43.59" x2="77.02" y2="43.62" gradientUnits="userSpaceOnUse"><stop offset="0.48" stop-color="#093444"/><stop offset="0.55" stop-color="#093948"/><stop offset="0.63" stop-color="#084753"/><stop offset="0.73" stop-color="#065e65"/><stop offset="0.82" stop-color="#037f7e"/><stop offset="0.92" stop-color="#00a79d"/></linearGradient><linearGradient id="linear-gradient-4" x1="98.57" y1="57.74" x2="98.57" y2="75.77" gradientUnits="userSpaceOnUse"><stop offset="0.3" stop-color="#0f3238"/><stop offset="0.41" stop-color="#0f343d"/><stop offset="0.53" stop-color="#113c4b"/><stop offset="0.67" stop-color="#134862"/><stop offset="0.81" stop-color="#165883"/><stop offset="0.95" stop-color="#1b6dad"/><stop offset="1" stop-color="#1c75bc"/></linearGradient><linearGradient id="linear-gradient-5" x1="-1346.81" y1="-444.32" x2="-1327.93" y2="-444.3" gradientTransform="translate(1349.09 541.88)" gradientUnits="userSpaceOnUse"><stop offset="0.61" stop-color="#093444"/><stop offset="0.69" stop-color="#0b3449"/><stop offset="0.79" stop-color="#113557"/><stop offset="0.89" stop-color="#1c376e"/><stop offset="1" stop-color="#2b398f"/><stop offset="1" stop-color="#2b3990"/></linearGradient></defs><path class="cls-1" d="M156.52,118c0,2.87-.92,5-2.73,6.32s-4.36,1.9-7.95,1.9h-3.11c-3.59,0-6.19-.62-7.95-1.9s-2.73-3.45-2.73-6.32a8.53,8.53,0,0,1,1.3-5.15,8.21,8.21,0,0,1,3.59-2.68l.72-.3,1.14,2.37-.83.33a5.51,5.51,0,0,0-2.48,1.78,6.26,6.26,0,0,0-.83,3.65,7.22,7.22,0,0,0,.35,2.39,4.21,4.21,0,0,0,1.13,1.66,5.2,5.2,0,0,0,2.37,1.14,18.39,18.39,0,0,0,4.22.42h3.11a17.85,17.85,0,0,0,4.22-.42,5.2,5.2,0,0,0,2.37-1.14,4.11,4.11,0,0,0,1.13-1.66,7.22,7.22,0,0,0,.35-2.39,6.26,6.26,0,0,0-.83-3.65,5.51,5.51,0,0,0-2.48-1.78l-.83-.33,1.14-2.37.72.3a8.21,8.21,0,0,1,3.59,2.68A8.53,8.53,0,0,1,156.52,118Z"/><path class="cls-1" d="M151.32,111a7.31,7.31,0,0,1,3.23,2.41,7.81,7.81,0,0,1,1.14,4.65c0,2.6-.79,4.48-2.39,5.64s-4.08,1.75-7.46,1.75h-3.11c-3.38,0-5.86-.58-7.46-1.75s-2.39-3-2.39-5.64a7.81,7.81,0,0,1,1.14-4.65,7.31,7.31,0,0,1,3.23-2.41l.41.85a6.44,6.44,0,0,0-2.83,2.06,6.91,6.91,0,0,0-1,4.15,8.09,8.09,0,0,0,.39,2.67,5.11,5.11,0,0,0,1.35,2,6.06,6.06,0,0,0,2.74,1.33,18.5,18.5,0,0,0,4.42.45h3.11a18.5,18.5,0,0,0,4.42-.45,6.06,6.06,0,0,0,2.74-1.33,5.11,5.11,0,0,0,1.35-2,8.09,8.09,0,0,0,.39-2.67,6.91,6.91,0,0,0-1-4.15,6.44,6.44,0,0,0-2.83-2.06Z"/><path class="cls-1" d="M156.52,99.42c0,2.87-.92,5-2.73,6.32s-4.36,1.9-7.95,1.9h-3.11c-3.59,0-6.19-.62-7.95-1.9s-2.73-3.45-2.73-6.32.92-5,2.73-6.31,4.36-1.9,7.95-1.9h3.11c3.59,0,6.19.62,7.95,1.9S156.52,96.56,156.52,99.42Zm-21.86,0a7.22,7.22,0,0,0,.35,2.39,4.21,4.21,0,0,0,1.13,1.66,5.2,5.2,0,0,0,2.37,1.14,18.39,18.39,0,0,0,4.22.42h3.11a17.85,17.85,0,0,0,4.22-.42,5.3,5.3,0,0,0,2.37-1.13,4.21,4.21,0,0,0,1.13-1.67,8.3,8.3,0,0,0,0-4.77,4.21,4.21,0,0,0-1.13-1.67,5.3,5.3,0,0,0-2.37-1.13,18,18,0,0,0-4.22-.42h-3.11a18,18,0,0,0-4.22.42,5.3,5.3,0,0,0-2.37,1.13A4.31,4.31,0,0,0,135,97,7.2,7.2,0,0,0,134.66,99.42Z"/><path class="cls-1" d="M153.3,93.78c1.6,1.17,2.39,3,2.39,5.64s-.79,4.48-2.39,5.65-4.08,1.74-7.46,1.74h-3.11c-3.38,0-5.86-.58-7.46-1.74s-2.39-3-2.39-5.65.8-4.47,2.39-5.64S139.35,92,142.73,92h3.11Q150.91,92,153.3,93.78Zm-19.08,3a9.3,9.3,0,0,0,0,5.33,5.11,5.11,0,0,0,1.35,2,6.06,6.06,0,0,0,2.74,1.33,18.5,18.5,0,0,0,4.42.45h3.11a18.5,18.5,0,0,0,4.42-.45,6.06,6.06,0,0,0,2.74-1.33,5.11,5.11,0,0,0,1.35-2,9.3,9.3,0,0,0,0-5.33,5.11,5.11,0,0,0-1.35-2,6.06,6.06,0,0,0-2.74-1.33,18.5,18.5,0,0,0-4.42-.45h-3.11a18.5,18.5,0,0,0-4.42.45,6.06,6.06,0,0,0-2.74,1.33A5.11,5.11,0,0,0,134.22,96.76Z"/><path class="cls-1" d="M156.21,87.3H132.36V84.88L150.6,74.34H132.36V71.72h23.85Zm-2.62-11.69-15.68,9.07h15.68Z"/><path class="cls-1" d="M154.42,84V74.17L134.81,85.51h20.57v.95H133.19v-1.1L153.7,73.51H133.19v-1h22.19V84Z"/><path class="cls-1" d="M156.52,59.6c0,2.86-.92,5-2.73,6.31s-4.36,1.9-7.95,1.9h-3.11c-3.59,0-6.19-.62-7.95-1.9s-2.73-3.45-2.73-6.31a8.51,8.51,0,0,1,1.32-5.19A8.18,8.18,0,0,1,137,51.73l.78-.32,1,2.44-.77.31a5.51,5.51,0,0,0-2.48,1.78,6.27,6.27,0,0,0-.83,3.66A7.2,7.2,0,0,0,135,62a4.31,4.31,0,0,0,1.13,1.67,5.3,5.3,0,0,0,2.37,1.13,17.85,17.85,0,0,0,4.22.42h3.11a17.85,17.85,0,0,0,4.22-.42,5.3,5.3,0,0,0,2.37-1.13A4.21,4.21,0,0,0,153.56,62a7.2,7.2,0,0,0,.35-2.38,6.84,6.84,0,0,0-1.06-4.05,2.62,2.62,0,0,0-1.94-1.33h-4.53v3.89h-2.61v-6.7h6.82a5.27,5.27,0,0,1,4.27,2.24A9.54,9.54,0,0,1,156.52,59.6Z"/><path class="cls-1" d="M137.66,53.38a6.44,6.44,0,0,0-2.83,2.06,7,7,0,0,0-1,4.16,8.07,8.07,0,0,0,.39,2.66,5.11,5.11,0,0,0,1.35,2,6.06,6.06,0,0,0,2.74,1.33,18.5,18.5,0,0,0,4.42.45h3.11a18.5,18.5,0,0,0,4.42-.45A6.06,6.06,0,0,0,153,64.25a5.11,5.11,0,0,0,1.35-2,8.07,8.07,0,0,0,.39-2.66,7.52,7.52,0,0,0-1.22-4.54,3.34,3.34,0,0,0-2.61-1.68h-5.36v3.9h-1v-5h6a4.43,4.43,0,0,1,3.61,1.92,8.65,8.65,0,0,1,1.49,5.44c0,2.59-.79,4.47-2.39,5.64S149.22,67,145.84,67h-3.11c-3.38,0-5.86-.58-7.46-1.74s-2.39-3-2.39-5.64A7.81,7.81,0,0,1,134,54.91a7.47,7.47,0,0,1,3.28-2.41Z"/><polygon class="cls-1" points="156.21 47.63 132.36 47.63 132.36 45.01 153.59 45.01 153.59 32.72 156.21 32.72 156.21 47.63"/><path class="cls-1" d="M154.42,33.55h1V46.79H133.19v-.95h21.23Z"/><path class="cls-1" d="M156.52,23.25c0,2.87-.92,5-2.73,6.31s-4.36,1.91-7.95,1.91h-3.11c-3.59,0-6.19-.63-7.95-1.91s-2.73-3.44-2.73-6.31.92-5,2.73-6.31,4.36-1.9,7.95-1.9h3.11c3.59,0,6.19.62,7.95,1.9S156.52,20.38,156.52,23.25Zm-21.86,0a7.12,7.12,0,0,0,.35,2.38,4.31,4.31,0,0,0,1.13,1.67,5.3,5.3,0,0,0,2.37,1.13,17.85,17.85,0,0,0,4.22.42h3.11a17.85,17.85,0,0,0,4.22-.42,5.3,5.3,0,0,0,2.37-1.13,4.21,4.21,0,0,0,1.13-1.67,7.12,7.12,0,0,0,.35-2.38,7.2,7.2,0,0,0-.35-2.38,4.21,4.21,0,0,0-1.13-1.67,5.3,5.3,0,0,0-2.37-1.13,18,18,0,0,0-4.22-.42h-3.11a18,18,0,0,0-4.22.42,5.3,5.3,0,0,0-2.37,1.13A4.31,4.31,0,0,0,135,20.87,7.2,7.2,0,0,0,134.66,23.25Z"/><path class="cls-1" d="M153.3,17.61c1.6,1.16,2.39,3,2.39,5.64s-.79,4.48-2.39,5.64-4.08,1.74-7.46,1.74h-3.11c-3.38,0-5.86-.58-7.46-1.74s-2.39-3-2.39-5.64.8-4.48,2.39-5.64,4.08-1.74,7.46-1.74h3.11Q150.91,15.87,153.3,17.61Zm-19.08,3a8.07,8.07,0,0,0-.39,2.66,8,8,0,0,0,.39,2.66,5.15,5.15,0,0,0,1.35,2,6.16,6.16,0,0,0,2.74,1.33,18.56,18.56,0,0,0,4.42.44h3.11a18.56,18.56,0,0,0,4.42-.44A6.16,6.16,0,0,0,153,27.91a5.15,5.15,0,0,0,1.35-2,8,8,0,0,0,.39-2.66,8.07,8.07,0,0,0-.39-2.66,5.22,5.22,0,0,0-1.35-2,6.16,6.16,0,0,0-2.74-1.33,19.09,19.09,0,0,0-4.42-.44h-3.11a19.09,19.09,0,0,0-4.42.44,6.16,6.16,0,0,0-2.74,1.33A5.22,5.22,0,0,0,134.22,20.59Z"/><path class="cls-2" d="M172.12,125.72V15.55h21.7c13.65,0,24.21,2.64,31.39,7.83,7.56,5.48,11.4,13.25,11.4,23.1,0,8.71-2.9,15.7-8.62,20.87,9.31,5.54,14.18,14.41,14.18,26,0,10-3.74,18-11.11,23.87-7.11,5.65-17.76,8.52-31.67,8.52Zm27.27-12.07a63.77,63.77,0,0,0,11.87-1,39.24,39.24,0,0,0,9.93-3.33,15,15,0,0,0,6.51-6.05,19.32,19.32,0,0,0,2.4-9.91c0-8.86-4-14.46-12.57-17.63L201,69.64l15.37-8.78c5.59-3.08,8.17-7.64,8.17-14.38,0-4.66,0-18.85-30.72-18.85h-9.63v86Z"/><path class="cls-2" d="M199.39,121.88H176V19.39h17.86q19.34,0,29.14,7.11t9.81,20q0,14.64-12.3,21.52,17.86,6.73,17.86,25.33,0,13.19-9.66,20.87T199.39,121.88Zm0-4.39a67.06,67.06,0,0,0,12.59-1.1,42.88,42.88,0,0,0,10.91-3.66,19,19,0,0,0,8.12-7.54,23,23,0,0,0,2.93-11.86q0-15.66-15.08-21.23l-8.78-3.22,8.19-4.68q10.11-5.56,10.11-17.72,0-22.69-34.56-22.69H180.35v93.7Z"/><path class="cls-2" d="M259.53,129.49v-9l-3.28,9H243.39L286.21,11.78,329,129.49Zm52.24-12.07L286.21,47.14l-25.57,70.28Z"/><path class="cls-2" d="M263.37,117.56h53.88l-31-85.35L253.56,122h-4.69L286.21,19.32,323.54,122H263.37Z"/><path class="cls-2" d="M367.76,127.19c-10.34,0-18.67-2.19-24.76-6.49s-10.51-11.15-12.78-20.13l-.81-3.18,11.27-4.83L341.76,97c1.71,6.89,4.53,11.66,8.4,14.17,4.07,2.65,10,4,17.6,4,8.43,0,14.65-1.54,18.47-4.58,3.56-2.83,5.36-8.27,5.36-16.17,0-3.13-1.49-5.91-4.56-8.48A51,51,0,0,0,373.55,78c-5.76-2.36-11.52-4.79-17.12-7.2a52.13,52.13,0,0,1-15.57-10.13,21.61,21.61,0,0,1-7.1-16c0-10.57,2.85-18.44,8.48-23.38s14-7.25,25.81-7.25c8.42,0,15.36,2.28,20.64,6.77S397.64,32,399.88,40.7l.64,2.48L383.83,55.74h-20l22.78-17.09c-1.68-4.32-3.85-7.41-6.47-9.2a21.08,21.08,0,0,0-12.11-3.29,53.46,53.46,0,0,0-9.2.67,24.28,24.28,0,0,0-6.94,2.48,9.59,9.59,0,0,0-4.35,4.95,26.51,26.51,0,0,0-1.73,10.46c0,3.14,1.49,5.91,4.56,8.48a51.28,51.28,0,0,0,13.42,7.89q8.51,3.52,17.1,7.19a51.61,51.61,0,0,1,15.64,10.13,21.58,21.58,0,0,1,7.11,16c0,10.78-2.82,19-8.38,24.54S380.64,127.19,367.76,127.19Z"/><path class="cls-2" d="M337.6,44.72q0-14.19,7.17-20.49t23.28-6.3q11.28,0,18.15,5.86t10,17.86L382.54,51.9h-7.17L391.18,40q-3.07-9.81-8.86-13.76t-14.27-4a57.1,57.1,0,0,0-9.88.73,28.26,28.26,0,0,0-8.06,2.86A13.45,13.45,0,0,0,344,32.72a30.05,30.05,0,0,0-2.05,12q0,6.45,5.93,11.42a55,55,0,0,0,14.42,8.5q8.49,3.51,17.06,7.17a47.47,47.47,0,0,1,14.49,9.37,17.81,17.81,0,0,1,5.93,13.18q0,14.64-7.25,21.81t-24.81,7.18q-14.36,0-22.55-5.79T333.94,99.63l4.1-1.76q2.93,11.86,10,16.47t19.7,4.61q14.06,0,20.86-5.41t6.81-19.18q0-6.45-5.93-11.42a54.74,54.74,0,0,0-14.5-8.5q-8.56-3.51-17.05-7.17a47.73,47.73,0,0,1-14.42-9.37A17.77,17.77,0,0,1,337.6,44.72Z"/><path class="cls-2" d="M419,125.72V15.55h77.71l-44.8,44.51h27.33V72.14H431v41.51h56.8v12.07Zm12.07-62,36.33-36.09H431Z"/><path class="cls-2" d="M475.36,68.3H431.88l44.8-44.51H427.2v93.7H484v4.39H422.81V19.39h64.56L442.57,63.9h32.79Z"/><rect class="cls-3" x="13.73" y="12.79" width="115.7" height="115.7" transform="translate(0.94 142.22) rotate(-90)"/><rect class="cls-4" x="13.73" y="12.79" width="115.7" height="115.7" transform="translate(143.17 141.28) rotate(180)"/><rect class="cls-5" x="71.58" y="16.66" width="53.97" height="53.97"/><rect class="cls-6" x="17.61" y="16.66" width="53.97" height="107.95"/><rect class="cls-7" x="71.58" y="70.64" width="53.97" height="53.97"/><rect class="cls-8" x="17.61" y="70.64" width="53.97" height="53.97" transform="translate(89.19 195.25) rotate(180)"/></svg>