<svg id="Layer_1" data-name="Layer 1" xmlns="http://www.w3.org/2000/svg" xmlns:xlink="http://www.w3.org/1999/xlink" viewBox="0 0 510.99 139.82"><defs><style>.cls-1{fill:#424243;}.cls-2{fill:#1b1b1b;}.cls-3,.cls-4,.cls-9{opacity:0.25;}.cls-3{fill:url(#Fading_Sky);}.cls-4{fill:url(#Fading_Sky-2);}.cls-5{fill:url(#linear-gradient);}.cls-6{fill:#2b3990;}.cls-7{fill:url(#linear-gradient-2);}.cls-8{fill:url(#linear-gradient-3);}.cls-9{fill:url(#Fading_Sky-3);}</style><linearGradient id="Fading_Sky" x1="-1219.74" y1="82.73" x2="-1091.45" y2="202.52" gradientTransform="translate(1203.11 -96.37)" gradientUnits="userSpaceOnUse"><stop offset="0" stop-color="#2484c6"/><stop offset="1" stop-color="#2484c6" stop-opacity="0"/></linearGradient><linearGradient id="Fading_Sky-2" x1="-1277.49" y1="-977.84" x2="-1149.21" y2="-858.06" gradientTransform="translate(1260.87 964.2)" xlink:href="#Fading_Sky"/><linearGradient id="linear-gradient" x1="57.26" y1="42.91" x2="78.02" y2="42.94" gradientUnits="userSpaceOnUse"><stop offset="0.48" stop-color="#093444"/><stop offset="0.55" stop-color="#093948"/><stop offset="0.63" stop-color="#084753"/><stop offset="0.73" stop-color="#065e65"/><stop offset="0.82" stop-color="#037f7e"/><stop offset="0.92" stop-color="#00a79d"/></linearGradient><linearGradient id="linear-gradient-2" x1="99.57" y1="57.06" x2="99.57" y2="75.1" gradientUnits="userSpaceOnUse"><stop offset="0.3" stop-color="#0f3238"/><stop offset="0.41" stop-color="#0f343d"/><stop offset="0.53" stop-color="#113c4b"/><stop offset="0.67" stop-color="#134862"/><stop offset="0.81" stop-color="#165883"/><stop offset="0.95" stop-color="#1b6dad"/><stop offset="1" stop-color="#1c75bc"/></linearGradient><linearGradient id="linear-gradient-3" x1="-1347.81" y1="-776.07" x2="-1327.05" y2="-776.04" gradientTransform="translate(1351.09 872.95)" gradientUnits="userSpaceOnUse"><stop offset="0.61" stop-color="#093444"/><stop offset="0.69" stop-color="#0b3449"/><stop offset="0.79" stop-color="#113557"/><stop offset="0.89" stop-color="#1c376e"/><stop offset="1" stop-color="#2b398f"/><stop offset="1" stop-color="#2b3990"/></linearGradient><linearGradient id="Fading_Sky-3" x1="-16.28" y1="-13.64" x2="112" y2="106.14" gradientTransform="matrix(1, 0, 0, 1, 0, 0)" xlink:href="#Fading_Sky"/></defs><path class="cls-1" d="M156.52,117c0,2.87-.92,5-2.73,6.31s-4.36,1.9-7.95,1.9h-3.11c-3.59,0-6.19-.62-7.95-1.9s-2.73-3.44-2.73-6.31a8.51,8.51,0,0,1,1.3-5.15,8.15,8.15,0,0,1,3.59-2.69l.72-.29,1.14,2.36-.83.33a5.6,5.6,0,0,0-2.48,1.79,6.22,6.22,0,0,0-.83,3.65,7.16,7.16,0,0,0,.35,2.38,4.31,4.31,0,0,0,1.13,1.67,5.3,5.3,0,0,0,2.37,1.13,17.85,17.85,0,0,0,4.22.42h3.11a17.85,17.85,0,0,0,4.22-.42,5.3,5.3,0,0,0,2.37-1.13,4.21,4.21,0,0,0,1.13-1.67,7.16,7.16,0,0,0,.35-2.38,6.22,6.22,0,0,0-.83-3.65,5.6,5.6,0,0,0-2.48-1.79l-.83-.33,1.14-2.36.72.29a8.15,8.15,0,0,1,3.59,2.69A8.51,8.51,0,0,1,156.52,117Z"/><path class="cls-1" d="M151.32,110a7.39,7.39,0,0,1,3.23,2.41,7.87,7.87,0,0,1,1.14,4.66c0,2.6-.79,4.48-2.39,5.64s-4.08,1.74-7.46,1.74h-3.11c-3.38,0-5.86-.58-7.46-1.74s-2.39-3-2.39-5.64a7.87,7.87,0,0,1,1.14-4.66,7.39,7.39,0,0,1,3.23-2.41l.41.86a6.36,6.36,0,0,0-2.83,2.06,6.91,6.91,0,0,0-1,4.15,8,8,0,0,0,.39,2.66,5.15,5.15,0,0,0,1.35,2,6.16,6.16,0,0,0,2.74,1.33,19.09,19.09,0,0,0,4.42.44h3.11a19.09,19.09,0,0,0,4.42-.44A6.16,6.16,0,0,0,153,121.7a5.15,5.15,0,0,0,1.35-2,8,8,0,0,0,.39-2.66,6.91,6.91,0,0,0-1-4.15,6.36,6.36,0,0,0-2.83-2.06Z"/><path class="cls-1" d="M156.52,98.44c0,2.87-.92,5-2.73,6.31s-4.36,1.9-7.95,1.9h-3.11c-3.59,0-6.19-.62-7.95-1.9s-2.73-3.44-2.73-6.31.92-5,2.73-6.31,4.36-1.9,7.95-1.9h3.11c3.59,0,6.19.62,7.95,1.9S156.52,95.57,156.52,98.44Zm-21.86,0a7.16,7.16,0,0,0,.35,2.38,4.31,4.31,0,0,0,1.13,1.67,5.3,5.3,0,0,0,2.37,1.13,17.85,17.85,0,0,0,4.22.42h3.11a17.85,17.85,0,0,0,4.22-.42,5.3,5.3,0,0,0,2.37-1.13,4.21,4.21,0,0,0,1.13-1.67,8.27,8.27,0,0,0,0-4.76,4.21,4.21,0,0,0-1.13-1.67,5.3,5.3,0,0,0-2.37-1.13,18,18,0,0,0-4.22-.42h-3.11a18,18,0,0,0-4.22.42,5.3,5.3,0,0,0-2.37,1.13A4.31,4.31,0,0,0,135,96.06,7.16,7.16,0,0,0,134.66,98.44Z"/><path class="cls-1" d="M153.3,92.8c1.6,1.16,2.39,3,2.39,5.64s-.79,4.48-2.39,5.64-4.08,1.74-7.46,1.74h-3.11c-3.38,0-5.86-.58-7.46-1.74s-2.39-3-2.39-5.64.8-4.48,2.39-5.64,4.08-1.74,7.46-1.74h3.11Q150.91,91.06,153.3,92.8Zm-19.08,3a9.27,9.27,0,0,0,0,5.32,5.15,5.15,0,0,0,1.35,2,6.16,6.16,0,0,0,2.74,1.33,19.09,19.09,0,0,0,4.42.44h3.11a19.09,19.09,0,0,0,4.42-.44A6.16,6.16,0,0,0,153,103.1a5.15,5.15,0,0,0,1.35-2,9.27,9.27,0,0,0,0-5.32,5.15,5.15,0,0,0-1.35-2,6.16,6.16,0,0,0-2.74-1.33,19.09,19.09,0,0,0-4.42-.44h-3.11a19.09,19.09,0,0,0-4.42.44,6.16,6.16,0,0,0-2.74,1.33A5.15,5.15,0,0,0,134.22,95.78Z"/><path class="cls-1" d="M156.21,86.31H132.36V83.89L150.6,73.35H132.36V70.74h23.85Zm-2.62-11.68L137.91,83.7h15.68Z"/><path class="cls-1" d="M154.42,83V73.19L134.81,84.53h20.57v1H133.19V84.37L153.7,72.52H133.19v-1h22.19V83Z"/><path class="cls-1" d="M156.52,58.61c0,2.87-.92,5-2.73,6.31s-4.36,1.9-7.95,1.9h-3.11c-3.59,0-6.19-.62-7.95-1.9s-2.73-3.44-2.73-6.31a8.55,8.55,0,0,1,1.32-5.19A8.34,8.34,0,0,1,137,50.74l.78-.31,1,2.44-.77.3A5.6,5.6,0,0,0,135.49,55a6.22,6.22,0,0,0-.83,3.65A7.16,7.16,0,0,0,135,61a4.31,4.31,0,0,0,1.13,1.67,5.3,5.3,0,0,0,2.37,1.13,17.85,17.85,0,0,0,4.22.42h3.11a17.85,17.85,0,0,0,4.22-.42,5.3,5.3,0,0,0,2.37-1.13A4.21,4.21,0,0,0,153.56,61a7.12,7.12,0,0,0,.35-2.38,6.83,6.83,0,0,0-1.06-4,2.61,2.61,0,0,0-1.94-1.34h-4.53v3.9h-2.61v-6.7h6.82a5.24,5.24,0,0,1,4.27,2.24A9.53,9.53,0,0,1,156.52,58.61Z"/><path class="cls-1" d="M137.66,52.4a6.36,6.36,0,0,0-2.83,2.06,6.91,6.91,0,0,0-1,4.15,8,8,0,0,0,.39,2.66,5.15,5.15,0,0,0,1.35,2,6.16,6.16,0,0,0,2.74,1.33,18.56,18.56,0,0,0,4.42.44h3.11a18.56,18.56,0,0,0,4.42-.44A6.16,6.16,0,0,0,153,63.27a5.15,5.15,0,0,0,1.35-2,8,8,0,0,0,.39-2.66,7.51,7.51,0,0,0-1.22-4.53,3.34,3.34,0,0,0-2.61-1.68h-5.36v3.9h-1v-5h6a4.43,4.43,0,0,1,3.61,1.92,8.62,8.62,0,0,1,1.49,5.43c0,2.6-.79,4.48-2.39,5.64S149.22,66,145.84,66h-3.11c-3.38,0-5.86-.58-7.46-1.74s-2.39-3-2.39-5.64A7.85,7.85,0,0,1,134,53.92a7.55,7.55,0,0,1,3.28-2.41Z"/><polygon class="cls-1" points="156.21 46.64 132.36 46.64 132.36 44.03 153.59 44.03 153.59 31.73 156.21 31.73 156.21 46.64"/><path class="cls-1" d="M154.42,32.56h1V45.81H133.19v-1h21.23Z"/><path class="cls-1" d="M156.52,22.27c0,2.86-.92,5-2.73,6.31s-4.36,1.9-7.95,1.9h-3.11c-3.59,0-6.19-.62-7.95-1.9s-2.73-3.45-2.73-6.31.92-5,2.73-6.32,4.36-1.9,7.95-1.9h3.11c3.59,0,6.19.62,7.95,1.9S156.52,19.4,156.52,22.27Zm-21.86,0a7.2,7.2,0,0,0,.35,2.38,4.31,4.31,0,0,0,1.13,1.67,5.3,5.3,0,0,0,2.37,1.13,17.85,17.85,0,0,0,4.22.42h3.11a17.85,17.85,0,0,0,4.22-.42,5.3,5.3,0,0,0,2.37-1.13,4.21,4.21,0,0,0,1.13-1.67,7.2,7.2,0,0,0,.35-2.38,7.12,7.12,0,0,0-.35-2.38,4.14,4.14,0,0,0-1.13-1.67,5.3,5.3,0,0,0-2.37-1.14,18.58,18.58,0,0,0-4.22-.41h-3.11a18.58,18.58,0,0,0-4.22.41,5.4,5.4,0,0,0-2.37,1.14A4.28,4.28,0,0,0,135,19.88,7.22,7.22,0,0,0,134.66,22.27Z"/><path class="cls-1" d="M153.3,16.63c1.6,1.16,2.39,3,2.39,5.64s-.79,4.48-2.39,5.64-4.08,1.74-7.46,1.74h-3.11c-3.38,0-5.86-.58-7.46-1.74s-2.39-3.05-2.39-5.64.8-4.48,2.39-5.64,4.08-1.75,7.46-1.75h3.11C149.22,14.88,151.71,15.47,153.3,16.63Zm-19.08,3a8,8,0,0,0-.39,2.66,8.07,8.07,0,0,0,.39,2.66,5.11,5.11,0,0,0,1.35,2,6.06,6.06,0,0,0,2.74,1.34,19.09,19.09,0,0,0,4.42.44h3.11a19.09,19.09,0,0,0,4.42-.44A6.06,6.06,0,0,0,153,26.92a5.11,5.11,0,0,0,1.35-2,8.07,8.07,0,0,0,.39-2.66,8,8,0,0,0-.39-2.66,5.15,5.15,0,0,0-1.35-2,6.06,6.06,0,0,0-2.74-1.33,18.5,18.5,0,0,0-4.42-.45h-3.11a18.5,18.5,0,0,0-4.42.45,6.06,6.06,0,0,0-2.74,1.33A5.15,5.15,0,0,0,134.22,19.61Z"/><path class="cls-2" d="M172.12,124.74V14.57h21.7c13.65,0,24.21,2.63,31.39,7.83,7.56,5.48,11.4,13.25,11.4,23.1,0,8.7-2.9,15.69-8.62,20.86,9.31,5.55,14.18,14.42,14.18,26,0,10-3.74,18-11.11,23.87-7.11,5.65-17.76,8.52-31.67,8.52Zm27.27-12.07a62.89,62.89,0,0,0,11.87-1,39.24,39.24,0,0,0,9.93-3.33,15.08,15.08,0,0,0,6.51-6,19.34,19.34,0,0,0,2.4-9.91c0-8.86-4-14.46-12.57-17.63L201,68.66l15.37-8.78c5.59-3.08,8.17-7.64,8.17-14.38,0-4.67,0-18.86-30.72-18.86h-9.63v86Z"/><path class="cls-2" d="M199.39,120.9H176V18.41h17.86q19.34,0,29.14,7.1t9.81,20q0,14.64-12.3,21.52,17.86,6.74,17.86,25.33,0,13.17-9.66,20.86T199.39,120.9Zm0-4.39a67.06,67.06,0,0,0,12.59-1.1,43.27,43.27,0,0,0,10.91-3.66,19,19,0,0,0,8.12-7.54,23,23,0,0,0,2.93-11.86q0-15.67-15.08-21.23l-8.78-3.22,8.19-4.69q10.11-5.57,10.11-17.71,0-22.69-34.56-22.7H180.35v93.71Z"/><path class="cls-2" d="M259.53,128.51v-9l-3.28,9H243.39L286.21,10.8,329,128.51Zm52.24-12.08L286.21,46.15l-25.57,70.28Z"/><path class="cls-2" d="M263.37,116.58h53.88l-31-85.36L253.56,121h-4.69L286.21,18.34,323.54,121H263.37Z"/><path class="cls-2" d="M367.76,126.2c-10.34,0-18.67-2.18-24.76-6.48s-10.51-11.16-12.78-20.14l-.81-3.18,11.27-4.83L341.76,96c1.71,6.9,4.53,11.67,8.4,14.18,4.07,2.65,10,4,17.6,4,8.43,0,14.65-1.54,18.47-4.58,3.56-2.83,5.36-8.27,5.36-16.18,0-3.13-1.49-5.9-4.56-8.48A51.28,51.28,0,0,0,373.55,77c-5.76-2.36-11.52-4.78-17.12-7.2a51.75,51.75,0,0,1-15.57-10.13,21.57,21.57,0,0,1-7.1-15.94c0-10.58,2.85-18.45,8.48-23.38s14-7.25,25.81-7.25c8.42,0,15.36,2.27,20.64,6.77S397.64,31,399.88,39.71l.64,2.48L383.83,54.75h-20l22.78-17.08c-1.68-4.33-3.85-7.42-6.47-9.21a21.07,21.07,0,0,0-12.11-3.28,52.47,52.47,0,0,0-9.2.67,24.24,24.24,0,0,0-6.94,2.47,9.67,9.67,0,0,0-4.35,5,26.57,26.57,0,0,0-1.73,10.47c0,3.13,1.49,5.9,4.56,8.48a51.26,51.26,0,0,0,13.42,7.88q8.51,3.52,17.1,7.19a51.82,51.82,0,0,1,15.64,10.14,21.56,21.56,0,0,1,7.11,15.94c0,10.78-2.82,19-8.38,24.55S380.64,126.2,367.76,126.2Z"/><path class="cls-2" d="M337.6,43.74q0-14.2,7.17-20.5T368.05,17q11.28,0,18.15,5.85t10,17.86L382.54,50.91h-7.17l15.81-11.86q-3.07-9.79-8.86-13.76t-14.27-3.95a56.13,56.13,0,0,0-9.88.73,28,28,0,0,0-8.06,2.86,13.43,13.43,0,0,0-6.07,6.8,30.14,30.14,0,0,0-2.05,12q0,6.43,5.93,11.42a54.74,54.74,0,0,0,14.42,8.49q8.49,3.51,17.06,7.17a47.85,47.85,0,0,1,14.49,9.37,17.81,17.81,0,0,1,5.93,13.18q0,14.64-7.25,21.82t-24.81,7.17q-14.36,0-22.55-5.78T333.94,98.64l4.1-1.75q2.93,11.85,10,16.47t19.7,4.61q14.06,0,20.86-5.42t6.81-19.18q0-6.44-5.93-11.42A54.46,54.46,0,0,0,375,73.46Q366.44,70,358,66.29a47.92,47.92,0,0,1-14.42-9.37A17.77,17.77,0,0,1,337.6,43.74Z"/><path class="cls-2" d="M419,124.74V14.57h77.71l-44.8,44.51h27.33V71.15H431v41.52h56.8v12.07Zm12.07-62,36.33-36.1H431Z"/><path class="cls-2" d="M475.36,67.31H431.88l44.8-44.51H427.2v93.71H484v4.39H422.81V18.41h64.56l-44.8,44.51h32.79Z"/><rect class="cls-3" x="14.73" y="11.8" width="115.7" height="115.7" transform="translate(2.93 142.24) rotate(-90)"/><rect class="cls-4" x="14.73" y="11.8" width="115.7" height="115.7" transform="translate(145.17 139.31) rotate(180)"/><rect class="cls-5" x="72.58" y="15.99" width="53.97" height="53.97"/><rect class="cls-6" x="18.61" y="15.99" width="53.97" height="107.95"/><rect class="cls-7" x="72.58" y="69.96" width="53.97" height="53.97"/><rect class="cls-8" x="18.61" y="69.96" width="53.97" height="53.97" transform="translate(91.19 193.9) rotate(180)"/><rect class="cls-9" x="15.07" y="11.8" width="115.7" height="115.7"/></svg>