<svg id="Layer_1" data-name="Layer 1" xmlns="http://www.w3.org/2000/svg" xmlns:xlink="http://www.w3.org/1999/xlink" viewBox="0 0 510.99 139.82"><defs><style>.cls-1{fill:#00a79d;}.cls-2{fill:#1c75bc;}.cls-3,.cls-4{opacity:0.25;}.cls-3{fill:url(#Fading_Sky);}.cls-4{fill:url(#Fading_Sky-2);}.cls-5{fill:url(#linear-gradient);}.cls-6{fill:#2b3990;}.cls-7{fill:url(#linear-gradient-2);}.cls-8{fill:url(#linear-gradient-3);}</style><linearGradient id="Fading_Sky" x1="-883.62" y1="419.33" x2="-755.33" y2="539.11" gradientTransform="translate(867.34 -432.83)" gradientUnits="userSpaceOnUse"><stop offset="0" stop-color="#2484c6"/><stop offset="1" stop-color="#2484c6" stop-opacity="0"/></linearGradient><linearGradient id="Fading_Sky-2" x1="-1270.82" y1="-316.04" x2="-1142.53" y2="-196.26" gradientTransform="translate(1254.53 302.54)" xlink:href="#Fading_Sky"/><linearGradient id="linear-gradient" x1="57.6" y1="43.05" x2="78.36" y2="43.08" gradientUnits="userSpaceOnUse"><stop offset="0.48" stop-color="#093444"/><stop offset="0.55" stop-color="#093948"/><stop offset="0.63" stop-color="#084753"/><stop offset="0.73" stop-color="#065e65"/><stop offset="0.82" stop-color="#037f7e"/><stop offset="0.92" stop-color="#00a79d"/></linearGradient><linearGradient id="linear-gradient-2" x1="99.91" y1="57.2" x2="99.91" y2="75.23" gradientUnits="userSpaceOnUse"><stop offset="0.3" stop-color="#0f3238"/><stop offset="0.41" stop-color="#0f343d"/><stop offset="0.53" stop-color="#113c4b"/><stop offset="0.67" stop-color="#134862"/><stop offset="0.81" stop-color="#165883"/><stop offset="0.95" stop-color="#1b6dad"/><stop offset="1" stop-color="#1c75bc"/></linearGradient><linearGradient id="linear-gradient-3" x1="-1348.15" y1="-103.7" x2="-1327.39" y2="-103.67" gradientTransform="translate(1351.77 200.71)" gradientUnits="userSpaceOnUse"><stop offset="0.61" stop-color="#093444"/><stop offset="0.69" stop-color="#0b3449"/><stop offset="0.79" stop-color="#113557"/><stop offset="0.89" stop-color="#1c376e"/><stop offset="1" stop-color="#2b398f"/><stop offset="1" stop-color="#2b3990"/></linearGradient></defs><path class="cls-1" d="M156.52,117.18c0,2.86-.92,5-2.73,6.31s-4.36,1.9-7.95,1.9h-3.11c-3.59,0-6.19-.62-7.95-1.9s-2.73-3.45-2.73-6.31a8.49,8.49,0,0,1,1.3-5.15,8.15,8.15,0,0,1,3.59-2.69l.72-.3,1.14,2.37-.83.33a5.58,5.58,0,0,0-2.48,1.78,6.27,6.27,0,0,0-.83,3.66,7.2,7.2,0,0,0,.35,2.38,4.31,4.31,0,0,0,1.13,1.67,5.3,5.3,0,0,0,2.37,1.13,17.85,17.85,0,0,0,4.22.42h3.11a17.85,17.85,0,0,0,4.22-.42,5.3,5.3,0,0,0,2.37-1.13,4.21,4.21,0,0,0,1.13-1.67,7.2,7.2,0,0,0,.35-2.38,6.27,6.27,0,0,0-.83-3.66,5.51,5.51,0,0,0-2.48-1.78l-.83-.33,1.14-2.37.72.3a8.15,8.15,0,0,1,3.59,2.69A8.49,8.49,0,0,1,156.52,117.18Z"/><path class="cls-1" d="M151.32,110.11a7.31,7.31,0,0,1,3.23,2.41,7.85,7.85,0,0,1,1.14,4.66c0,2.59-.79,4.47-2.39,5.64s-4.08,1.74-7.46,1.74h-3.11c-3.38,0-5.86-.58-7.46-1.74s-2.39-3-2.39-5.64a7.85,7.85,0,0,1,1.14-4.66,7.31,7.31,0,0,1,3.23-2.41l.41.86a6.35,6.35,0,0,0-2.83,2,7,7,0,0,0-1,4.16,8.07,8.07,0,0,0,.39,2.66,5.11,5.11,0,0,0,1.35,2,6,6,0,0,0,2.74,1.33,18.5,18.5,0,0,0,4.42.45h3.11a18.5,18.5,0,0,0,4.42-.45,6,6,0,0,0,2.74-1.33,5.11,5.11,0,0,0,1.35-2,8.07,8.07,0,0,0,.39-2.66,7,7,0,0,0-1-4.16,6.35,6.35,0,0,0-2.83-2Z"/><path class="cls-1" d="M156.52,98.58c0,2.86-.92,5-2.73,6.31s-4.36,1.9-7.95,1.9h-3.11c-3.59,0-6.19-.62-7.95-1.9s-2.73-3.45-2.73-6.31.92-5,2.73-6.32,4.36-1.9,7.95-1.9h3.11c3.59,0,6.19.62,7.95,1.9S156.52,95.71,156.52,98.58Zm-21.86,0A7.2,7.2,0,0,0,135,101a4.31,4.31,0,0,0,1.13,1.67,5.3,5.3,0,0,0,2.37,1.13,17.85,17.85,0,0,0,4.22.42h3.11a17.85,17.85,0,0,0,4.22-.42,5.3,5.3,0,0,0,2.37-1.13,4.21,4.21,0,0,0,1.13-1.67,8.3,8.3,0,0,0,0-4.77,4.11,4.11,0,0,0-1.13-1.66,5.2,5.2,0,0,0-2.37-1.14,18.52,18.52,0,0,0-4.22-.42h-3.11a18.52,18.52,0,0,0-4.22.42,5.3,5.3,0,0,0-2.37,1.14A4.21,4.21,0,0,0,135,96.19,7.22,7.22,0,0,0,134.66,98.58Z"/><path class="cls-1" d="M153.3,92.94c1.6,1.16,2.39,3,2.39,5.64s-.79,4.47-2.39,5.64-4.08,1.74-7.46,1.74h-3.11c-3.38,0-5.86-.58-7.46-1.74s-2.39-3-2.39-5.64.8-4.48,2.39-5.64,4.08-1.75,7.46-1.75h3.11Q150.91,91.19,153.3,92.94Zm-19.08,3a9.3,9.3,0,0,0,0,5.33,5.11,5.11,0,0,0,1.35,2,6,6,0,0,0,2.74,1.33,18.5,18.5,0,0,0,4.42.45h3.11a18.5,18.5,0,0,0,4.42-.45,6,6,0,0,0,2.74-1.33,5.11,5.11,0,0,0,1.35-2,9.3,9.3,0,0,0,0-5.33,5.19,5.19,0,0,0-1.35-2,6.06,6.06,0,0,0-2.74-1.33,18.5,18.5,0,0,0-4.42-.45h-3.11a18.5,18.5,0,0,0-4.42.45,6.06,6.06,0,0,0-2.74,1.33A5.19,5.19,0,0,0,134.22,95.91Z"/><path class="cls-1" d="M156.21,86.45H132.36V84L150.6,73.49H132.36V70.87h23.85Zm-2.62-11.69-15.68,9.07h15.68Z"/><path class="cls-1" d="M154.42,83.14V73.32L134.81,84.67h20.57v1H133.19V84.51L153.7,72.66H133.19v-1h22.19V83.14Z"/><path class="cls-1" d="M156.52,58.75c0,2.86-.92,5-2.73,6.31s-4.36,1.9-7.95,1.9h-3.11c-3.59,0-6.19-.62-7.95-1.9s-2.73-3.45-2.73-6.31a8.51,8.51,0,0,1,1.32-5.19A8.26,8.26,0,0,1,137,50.88l.78-.32,1,2.44-.77.31a5.66,5.66,0,0,0-2.48,1.78,6.27,6.27,0,0,0-.83,3.66,7.2,7.2,0,0,0,.35,2.38,4.31,4.31,0,0,0,1.13,1.67,5.3,5.3,0,0,0,2.37,1.13,17.85,17.85,0,0,0,4.22.42h3.11a17.85,17.85,0,0,0,4.22-.42,5.3,5.3,0,0,0,2.37-1.13,4.21,4.21,0,0,0,1.13-1.67,7.2,7.2,0,0,0,.35-2.38,6.84,6.84,0,0,0-1.06-4,2.62,2.62,0,0,0-1.94-1.33h-4.53v3.89h-2.61v-6.7h6.82a5.27,5.27,0,0,1,4.27,2.24A9.54,9.54,0,0,1,156.52,58.75Z"/><path class="cls-1" d="M137.66,52.54a6.29,6.29,0,0,0-2.83,2.06,6.89,6.89,0,0,0-1,4.15,8.07,8.07,0,0,0,.39,2.66,5.11,5.11,0,0,0,1.35,2,6.06,6.06,0,0,0,2.74,1.34,19.09,19.09,0,0,0,4.42.44h3.11a19.09,19.09,0,0,0,4.42-.44A6.06,6.06,0,0,0,153,63.4a5.11,5.11,0,0,0,1.35-2,8.07,8.07,0,0,0,.39-2.66,7.49,7.49,0,0,0-1.22-4.53,3.34,3.34,0,0,0-2.61-1.68h-5.36v3.89h-1v-5h6a4.43,4.43,0,0,1,3.61,1.92,8.65,8.65,0,0,1,1.49,5.44c0,2.59-.79,4.47-2.39,5.64s-4.08,1.74-7.46,1.74h-3.11c-3.38,0-5.86-.58-7.46-1.74s-2.39-3-2.39-5.64A7.83,7.83,0,0,1,134,54.06a7.47,7.47,0,0,1,3.28-2.41Z"/><polygon class="cls-1" points="156.21 46.78 132.36 46.78 132.36 44.16 153.59 44.16 153.59 31.87 156.21 31.87 156.21 46.78"/><path class="cls-1" d="M154.42,32.7h1V46H133.19V45h21.23Z"/><path class="cls-1" d="M156.52,22.4c0,2.87-.92,5-2.73,6.31s-4.36,1.91-7.95,1.91h-3.11c-3.59,0-6.19-.63-7.95-1.91s-2.73-3.44-2.73-6.31.92-5,2.73-6.31,4.36-1.9,7.95-1.9h3.11c3.59,0,6.19.62,7.95,1.9S156.52,19.54,156.52,22.4Zm-21.86,0a7.22,7.22,0,0,0,.35,2.39,4.28,4.28,0,0,0,1.13,1.66,5.3,5.3,0,0,0,2.37,1.13,17.85,17.85,0,0,0,4.22.42h3.11a17.85,17.85,0,0,0,4.22-.42,5.3,5.3,0,0,0,2.37-1.13,4.17,4.17,0,0,0,1.13-1.66,7.22,7.22,0,0,0,.35-2.39,7.2,7.2,0,0,0-.35-2.38,4.21,4.21,0,0,0-1.13-1.67,5.3,5.3,0,0,0-2.37-1.13,18,18,0,0,0-4.22-.42h-3.11a18,18,0,0,0-4.22.42,5.3,5.3,0,0,0-2.37,1.13A4.31,4.31,0,0,0,135,20,7.2,7.2,0,0,0,134.66,22.4Z"/><path class="cls-1" d="M153.3,16.76c1.6,1.16,2.39,3,2.39,5.64s-.79,4.48-2.39,5.64-4.08,1.75-7.46,1.75h-3.11c-3.38,0-5.86-.59-7.46-1.75s-2.39-3-2.39-5.64.8-4.48,2.39-5.64S139.35,15,142.73,15h3.11Q150.91,15,153.3,16.76Zm-19.08,3a8.07,8.07,0,0,0-.39,2.66,8,8,0,0,0,.39,2.66,5.15,5.15,0,0,0,1.35,2,6.06,6.06,0,0,0,2.74,1.33,18.56,18.56,0,0,0,4.42.44h3.11a18.56,18.56,0,0,0,4.42-.44A6.06,6.06,0,0,0,153,27.06a5.15,5.15,0,0,0,1.35-2,8,8,0,0,0,.39-2.66,8.07,8.07,0,0,0-.39-2.66,5.22,5.22,0,0,0-1.35-2,6.16,6.16,0,0,0-2.74-1.33,19.09,19.09,0,0,0-4.42-.44h-3.11a19.09,19.09,0,0,0-4.42.44,6.16,6.16,0,0,0-2.74,1.33A5.22,5.22,0,0,0,134.22,19.74Z"/><path class="cls-2" d="M172.12,124.87V14.71h21.7c13.65,0,24.21,2.63,31.39,7.83,7.56,5.48,11.4,13.25,11.4,23.09,0,8.71-2.9,15.7-8.62,20.87,9.31,5.54,14.18,14.41,14.18,26,0,10-3.74,18-11.11,23.87-7.11,5.66-17.76,8.52-31.67,8.52Zm27.27-12.07a63.77,63.77,0,0,0,11.87-1,39.24,39.24,0,0,0,9.93-3.33,15,15,0,0,0,6.51-6,19.32,19.32,0,0,0,2.4-9.91c0-8.86-4-14.46-12.57-17.62L201,68.8,216.37,60c5.59-3.07,8.17-7.63,8.17-14.38,0-4.66,0-18.85-30.72-18.85h-9.63v86Z"/><path class="cls-2" d="M199.39,121H176V18.55h17.86q19.34,0,29.14,7.1t9.81,20q0,14.64-12.3,21.52,17.86,6.75,17.86,25.33,0,13.18-9.66,20.87T199.39,121Zm0-4.39a67.06,67.06,0,0,0,12.59-1.1,42.88,42.88,0,0,0,10.91-3.66,18.9,18.9,0,0,0,8.12-7.54,23,23,0,0,0,2.93-11.86q0-15.66-15.08-21.23L210.08,68l8.19-4.68q10.11-5.57,10.11-17.72,0-22.7-34.56-22.69H180.35v93.7Z"/><path class="cls-2" d="M259.53,128.64v-9l-3.28,9H243.39l42.82-117.7L329,128.64Zm52.24-12.07L286.21,46.29l-25.57,70.28Z"/><path class="cls-2" d="M263.37,116.71h53.88l-31-85.35-32.65,89.75h-4.69L286.21,18.47l37.33,102.64H263.37Z"/><path class="cls-2" d="M367.76,126.34c-10.34,0-18.67-2.19-24.76-6.49s-10.51-11.15-12.78-20.13l-.81-3.18,11.27-4.83,1.08,4.39c1.71,6.89,4.53,11.66,8.4,14.17,4.07,2.65,10,4,17.6,4,8.43,0,14.65-1.55,18.47-4.59,3.56-2.83,5.36-8.27,5.36-16.17,0-3.13-1.49-5.91-4.56-8.48a51,51,0,0,0-13.48-7.88c-5.76-2.36-11.52-4.79-17.12-7.2a52.13,52.13,0,0,1-15.57-10.13,21.59,21.59,0,0,1-7.1-16c0-10.57,2.85-18.44,8.48-23.38s14-7.25,25.81-7.25c8.42,0,15.36,2.28,20.64,6.77s8.95,11.09,11.19,19.84l.64,2.48L383.83,54.89h-20L386.63,37.8c-1.68-4.32-3.85-7.41-6.47-9.2a21.08,21.08,0,0,0-12.11-3.29,53.46,53.46,0,0,0-9.2.67,24.28,24.28,0,0,0-6.94,2.48,9.59,9.59,0,0,0-4.35,4.95,26.51,26.51,0,0,0-1.73,10.46c0,3.14,1.49,5.91,4.56,8.48a51.28,51.28,0,0,0,13.42,7.89q8.51,3.52,17.1,7.19a51.61,51.61,0,0,1,15.64,10.13,21.58,21.58,0,0,1,7.11,16c0,10.78-2.82,19-8.38,24.54S380.64,126.34,367.76,126.34Z"/><path class="cls-2" d="M337.6,43.87q0-14.19,7.17-20.49t23.28-6.3q11.28,0,18.15,5.86t10,17.86L382.54,51.05h-7.17l15.81-11.86q-3.07-9.81-8.86-13.76t-14.27-4a56,56,0,0,0-9.88.74,27.93,27.93,0,0,0-8.06,2.85A13.49,13.49,0,0,0,344,31.87a30.09,30.09,0,0,0-2.05,12q0,6.45,5.93,11.43a55.28,55.28,0,0,0,14.42,8.49Q370.83,67.3,379.4,71a47.47,47.47,0,0,1,14.49,9.37,17.81,17.81,0,0,1,5.93,13.18q0,14.64-7.25,21.81t-24.81,7.18q-14.36,0-22.55-5.79T333.94,98.78L338,97q2.93,11.87,10,16.47t19.7,4.62q14.06,0,20.86-5.42t6.81-19.18q0-6.45-5.93-11.42a54.74,54.74,0,0,0-14.5-8.5q-8.56-3.51-17.05-7.17a47.73,47.73,0,0,1-14.42-9.37A17.77,17.77,0,0,1,337.6,43.87Z"/><path class="cls-2" d="M419,124.74V14.57h77.71l-44.8,44.51h27.33V71.15H431v41.52h56.8v12.07Zm12.07-62,36.33-36.1H431Z"/><path class="cls-2" d="M475.36,67.31H431.88l44.8-44.51H427.2v93.71H484v4.39H422.81V18.41h64.56l-44.8,44.51h32.79Z"/><rect class="cls-3" x="15.07" y="11.94" width="115.7" height="115.7" transform="translate(3.13 142.71) rotate(-90)"/><rect class="cls-4" x="15.07" y="11.94" width="115.7" height="115.7" transform="translate(142.71 -3.13) rotate(90)"/><rect class="cls-5" x="72.92" y="16.12" width="53.97" height="53.97"/><rect class="cls-6" x="18.95" y="16.12" width="53.97" height="107.95"/><rect class="cls-7" x="72.92" y="70.1" width="53.97" height="53.97"/><rect class="cls-8" x="18.95" y="70.1" width="53.97" height="53.97" transform="translate(91.87 194.17) rotate(180)"/></svg>