<svg xmlns="http://www.w3.org/2000/svg" viewBox="0 0 439.23 54.9"><defs><style>.cls-1{fill:#00a79d;}.cls-2{fill:#1c75bc;}</style></defs><g id="Layer_2" data-name="Layer 2"><g id="Layer_1-2" data-name="Layer 1"><path class="cls-1" d="M34.77,44.38A17.61,17.61,0,0,1,29,52.16q-3.74,2.75-11.21,2.74-9.39,0-13.58-5.75T0,31.19V23.72q0-12.21,4.19-18T17.77,0Q25.24,0,29,2.75a17.64,17.64,0,0,1,5.79,7.77l-2.06,1a15.4,15.4,0,0,0-4.95-6.82q-3.21-2.4-10-2.4a19.29,19.29,0,0,0-6.41,1,12.18,12.18,0,0,0-4.8,3.24,14.77,14.77,0,0,0-3.21,6.6A45.15,45.15,0,0,0,2.29,23.72v7.47A45.15,45.15,0,0,0,3.35,41.83a14.68,14.68,0,0,0,3.21,6.59,12,12,0,0,0,4.8,3.24,19,19,0,0,0,6.41,1q6.78,0,10-2.41a15.34,15.34,0,0,0,4.95-6.82Z"/><path class="cls-1" d="M76.1,49.15q-4.18,5.76-13.57,5.75T49,49.15q-4.2-5.76-4.2-18V23.72q0-12.21,4.2-18T62.53,0Q71.91,0,76.1,5.76t4.2,18v7.47Q80.3,43.39,76.1,49.15ZM68.93,3.24a19.22,19.22,0,0,0-6.4-1,19.29,19.29,0,0,0-6.41,1,12.18,12.18,0,0,0-4.8,3.24,14.77,14.77,0,0,0-3.2,6.6,44.57,44.57,0,0,0-1.07,10.64v7.47a44.57,44.57,0,0,0,1.07,10.64,14.67,14.67,0,0,0,3.2,6.59,12,12,0,0,0,4.8,3.24,19,19,0,0,0,6.41,1,19,19,0,0,0,6.4-1,12.07,12.07,0,0,0,4.81-3.24,14.67,14.67,0,0,0,3.2-6.59A45.1,45.1,0,0,0,78,31.19V23.72a45.1,45.1,0,0,0-1.07-10.64,14.77,14.77,0,0,0-3.2-6.6A12.28,12.28,0,0,0,68.93,3.24Z"/><path class="cls-1" d="M99.67,51.85H123.3L96,4.65V54.14H93.72V.76h2.67L124.91,50.1V.76h2.28V54.14H99.67Z"/><path class="cls-1" d="M173.33,11.51a15.34,15.34,0,0,0-5-6.82q-3.19-2.4-10-2.4a19.18,19.18,0,0,0-6.4,1,12.21,12.21,0,0,0-4.81,3.24,14.77,14.77,0,0,0-3.2,6.6,45.1,45.1,0,0,0-1.07,10.64v7.47A45.1,45.1,0,0,0,144,41.83a14.67,14.67,0,0,0,3.2,6.59A12,12,0,0,0,152,51.66a18.92,18.92,0,0,0,6.4,1q6.87,0,10.91-2.94c2.69-2,4-4,4-6.29V30.5H164V28.21h12.12V42.63q0,5.1-4.61,8.69T158.38,54.9q-9.37,0-13.57-5.75t-4.2-18V23.72q0-12.21,4.2-18T158.38,0q7.55,0,11.29,2.78a17.88,17.88,0,0,1,5.79,7.9Z"/><path class="cls-1" d="M221.06,51.85v2.29H189.19V.76h2.29V51.85Z"/><path class="cls-1" d="M259.42,49.15q-4.2,5.76-13.57,5.75t-13.58-5.75q-4.19-5.76-4.19-18V23.72q0-12.21,4.19-18T245.85,0q9.38,0,13.57,5.76t4.19,18v7.47Q263.61,43.39,259.42,49.15ZM252.25,3.24a22.07,22.07,0,0,0-12.81,0,12.18,12.18,0,0,0-4.8,3.24,14.67,14.67,0,0,0-3.21,6.6,45.15,45.15,0,0,0-1.06,10.64v7.47a45.15,45.15,0,0,0,1.06,10.64,14.58,14.58,0,0,0,3.21,6.59,12,12,0,0,0,4.8,3.24,21.85,21.85,0,0,0,12.81,0,12,12,0,0,0,4.8-3.24,14.68,14.68,0,0,0,3.21-6.59,45.1,45.1,0,0,0,1.07-10.64V23.72a45.1,45.1,0,0,0-1.07-10.64,14.77,14.77,0,0,0-3.21-6.6A12.18,12.18,0,0,0,252.25,3.24Z"/><path class="cls-2" d="M289.23,54.14H277V.76h9.31q10.07,0,15.17,3.7a12.11,12.11,0,0,1,5.11,10.41q0,7.62-6.4,11.21,9.3,3.51,9.3,13.19a13.16,13.16,0,0,1-5,10.87Q299.45,54.15,289.23,54.14Zm0-2.29a34.92,34.92,0,0,0,6.56-.57,22.09,22.09,0,0,0,5.68-1.9,9.88,9.88,0,0,0,4.24-3.93,12,12,0,0,0,1.52-6.18q0-8.16-7.85-11.06l-4.58-1.67,4.27-2.44a9.77,9.77,0,0,0,5.26-9.23q0-11.82-18-11.82h-7v48.8Z"/><path class="cls-2" d="M322.56,51.85h28.06L334.45,7.4l-17,46.74H315L334.45.69,353.9,54.14H322.56Z"/><path class="cls-2" d="M361.22,14c0-4.94,1.24-8.49,3.74-10.68S371.49,0,377.08,0a14.11,14.11,0,0,1,9.46,3.05c2.39,2,4.11,5.14,5.18,9.3l-7.09,5.34h-3.74l8.24-6.18q-1.61-5.1-4.61-7.16a12.83,12.83,0,0,0-7.44-2.06,29.88,29.88,0,0,0-5.15.38,14.35,14.35,0,0,0-4.19,1.49,7,7,0,0,0-3.17,3.54A15.77,15.77,0,0,0,363.51,14a7.61,7.61,0,0,0,3.09,5.94,28.38,28.38,0,0,0,7.51,4.43c2.94,1.22,5.91,2.46,8.88,3.73a24.89,24.89,0,0,1,7.55,4.88,9.28,9.28,0,0,1,3.09,6.87q0,7.62-3.78,11.36T376.93,54.9q-7.47,0-11.75-3t-5.87-9.34l2.14-.91c1,4.11,2.76,7,5.22,8.57s5.89,2.41,10.26,2.41q7.32,0,10.86-2.83c2.37-1.87,3.55-5.21,3.55-10a7.63,7.63,0,0,0-3.09-6,28.59,28.59,0,0,0-7.55-4.43q-4.45-1.83-8.88-3.73a24.93,24.93,0,0,1-7.51-4.88A9.27,9.27,0,0,1,361.22,14Z"/><path class="cls-2" d="M433,26.23H410.33L433.66,3.05H407.89v48.8h29.58v2.29H405.6V.76h33.63L415.89,23.94H433Z"/></g></g></svg>