<svg xmlns="http://www.w3.org/2000/svg" viewBox="0 0 515.01 59.96"><defs><style>.cls-1{fill:#00a79d;}.cls-2{fill:#2b3990;}.cls-3{fill:#1c75bc;}</style></defs><g id="Layer_2" data-name="Layer 2"><g id="Layer_1-2" data-name="Layer 1"><rect class="cls-1" x="32.63" width="27.25" height="27.25"/><rect class="cls-2" width="27.25" height="59.96"/><rect class="cls-3" x="32.63" y="32.71" width="27.25" height="27.25"/><path class="cls-1" d="M110.56,48.32a17.76,17.76,0,0,1-5.8,7.78Q101,58.85,93.55,58.84q-9.37,0-13.57-5.75t-4.2-18V27.65q0-12.19,4.2-17.95T93.55,3.94q7.47,0,11.21,2.74a17.76,17.76,0,0,1,5.8,7.78l-2.06,1a15.28,15.28,0,0,0-5-6.82q-3.2-2.4-10-2.4a19,19,0,0,0-6.4.95,12.07,12.07,0,0,0-4.81,3.24,14.66,14.66,0,0,0-3.2,6.6,45,45,0,0,0-1.07,10.63v7.48a45,45,0,0,0,1.07,10.63,14.66,14.66,0,0,0,3.2,6.6,12.07,12.07,0,0,0,4.81,3.24,19,19,0,0,0,6.4.95q6.8,0,10-2.4a15.28,15.28,0,0,0,5-6.82Z"/><path class="cls-1" d="M151.89,53.09q-4.2,5.74-13.58,5.75t-13.57-5.75q-4.2-5.76-4.19-18V27.65q0-12.19,4.19-17.95t13.57-5.76q9.39,0,13.58,5.76t4.19,18v7.48Q156.08,47.33,151.89,53.09ZM144.72,7.18a22.07,22.07,0,0,0-12.81,0,12.07,12.07,0,0,0-4.81,3.24,14.66,14.66,0,0,0-3.2,6.6,45,45,0,0,0-1.07,10.63v7.48a45,45,0,0,0,1.07,10.63,14.66,14.66,0,0,0,3.2,6.6,12.07,12.07,0,0,0,4.81,3.24,22.07,22.07,0,0,0,12.81,0,12,12,0,0,0,4.8-3.24,14.67,14.67,0,0,0,3.21-6.6,45.06,45.06,0,0,0,1.06-10.63V27.65A45.06,45.06,0,0,0,152.73,17a14.67,14.67,0,0,0-3.21-6.6A12,12,0,0,0,144.72,7.18Z"/><path class="cls-1" d="M175.45,55.79h23.64l-27.3-47.2V58.08H169.5V4.7h2.67L200.69,54V4.7H203V58.08H175.45Z"/><path class="cls-1" d="M249.11,15.45a15.34,15.34,0,0,0-5-6.82q-3.21-2.4-10-2.4a19,19,0,0,0-6.41.95,12,12,0,0,0-4.8,3.24,14.67,14.67,0,0,0-3.21,6.6,45.06,45.06,0,0,0-1.06,10.63v7.48a45.06,45.06,0,0,0,1.06,10.63,14.67,14.67,0,0,0,3.21,6.6,12,12,0,0,0,4.8,3.24,19,19,0,0,0,6.41.95q6.86,0,10.9-2.93c2.7-2,4-4.06,4-6.29V34.44h-9.38V32.15h12.13V46.56q0,5.11-4.62,8.7t-13.07,3.58q-9.39,0-13.58-5.75t-4.19-18V27.65q0-12.19,4.19-17.95t13.58-5.76q7.54,0,11.28,2.78a18,18,0,0,1,5.8,7.89Z"/><path class="cls-1" d="M296.85,55.79v2.29H265V4.7h2.29V55.79Z"/><path class="cls-1" d="M335.2,53.09q-4.18,5.74-13.57,5.75t-13.57-5.75q-4.2-5.76-4.2-18V27.65q0-12.19,4.2-17.95t13.57-5.76q9.38,0,13.57,5.76t4.2,18v7.48Q339.4,47.33,335.2,53.09ZM328,7.18a22.1,22.1,0,0,0-12.82,0,12,12,0,0,0-4.8,3.24,14.66,14.66,0,0,0-3.2,6.6,45,45,0,0,0-1.07,10.63v7.48a45,45,0,0,0,1.07,10.63,14.66,14.66,0,0,0,3.2,6.6,12,12,0,0,0,4.8,3.24,22.1,22.1,0,0,0,12.82,0,12,12,0,0,0,4.8-3.24,14.66,14.66,0,0,0,3.2-6.6,45,45,0,0,0,1.07-10.63V27.65A45,45,0,0,0,336,17a14.66,14.66,0,0,0-3.2-6.6A12,12,0,0,0,328,7.18Z"/><path class="cls-3" d="M365,58.08h-12.2V4.7h9.3q10.06,0,15.18,3.7a12.13,12.13,0,0,1,5.11,10.41q0,7.62-6.41,11.21,9.3,3.51,9.3,13.19a13.13,13.13,0,0,1-5,10.87Q375.25,58.09,365,58.08Zm0-2.29a35,35,0,0,0,6.56-.57,22.37,22.37,0,0,0,5.68-1.91,9.89,9.89,0,0,0,4.23-3.92A12,12,0,0,0,383,43.21q0-8.16-7.86-11.06l-4.57-1.68L374.86,28a9.78,9.78,0,0,0,5.26-9.22q0-11.82-18-11.82h-7v48.8Z"/><path class="cls-3" d="M398.34,55.79h28.07L410.24,11.34l-17,46.74h-2.44L410.24,4.62l19.44,53.46H398.34Z"/><path class="cls-3" d="M437,17.89q0-7.39,3.74-10.67t12.13-3.28A14.1,14.1,0,0,1,462.32,7q3.58,3,5.19,9.3l-7.1,5.34h-3.73l8.23-6.18q-1.59-5.1-4.61-7.17a12.89,12.89,0,0,0-7.43-2,28.84,28.84,0,0,0-5.15.38,14.68,14.68,0,0,0-4.2,1.48,7,7,0,0,0-3.16,3.55,15.74,15.74,0,0,0-1.07,6.25,7.63,7.63,0,0,0,3.09,5.95,28.52,28.52,0,0,0,7.51,4.42q4.42,1.83,8.89,3.74a24.72,24.72,0,0,1,7.54,4.88,9.26,9.26,0,0,1,3.09,6.86q0,7.63-3.77,11.37t-12.93,3.73q-7.47,0-11.74-3t-5.87-9.34l2.13-.92q1.53,6.18,5.23,8.58t10.25,2.4q7.32,0,10.87-2.82t3.55-10A7.61,7.61,0,0,0,464,37.8a28.48,28.48,0,0,0-7.55-4.43q-4.47-1.83-8.89-3.73a25.06,25.06,0,0,1-7.51-4.88A9.28,9.28,0,0,1,437,17.89Z"/><path class="cls-3" d="M508.76,30.17H486.11L509.45,7H483.67v48.8h29.59v2.29H481.38V4.7H515L491.68,27.88h17.08Z"/></g></g></svg>